<?xml version="1.0" standalone="no"?>
<!DOCTYPE svg PUBLIC "-//W3C//DTD SVG 20010904//EN"
 "http://www.w3.org/TR/2001/REC-SVG-20010904/DTD/svg10.dtd">
<svg version="1.0" xmlns="http://www.w3.org/2000/svg"
 width="1280.000000pt" height="989.000000pt" viewBox="0 0 1280.000000 989.000000"
 preserveAspectRatio="xMidYMid meet">
<metadata>
Created by potrace 1.15, written by Peter Selinger 2001-2017
</metadata>
<g transform="translate(0.000000,989.000000) scale(0.100000,-0.100000)"
fill="#E2C799" stroke="none">
<path d="M4435 9397 c-68 -23 -101 -44 -148 -97 -56 -62 -77 -122 -77 -217 0
-128 56 -251 163 -357 29 -29 129 -113 222 -188 208 -166 253 -210 148 -145
-147 90 -364 138 -533 116 -46 -5 -87 -12 -90 -14 -4 -2 -5 20 -2 50 19 224
-288 297 -656 155 -230 -89 -473 -325 -586 -571 -36 -79 -86 -228 -86 -258 0
-41 -15 -28 -32 28 -11 37 -32 74 -52 96 -29 30 -40 35 -80 35 -44 0 -106 -22
-106 -38 0 -4 15 -19 33 -34 49 -38 62 -73 127 -332 33 -128 71 -263 85 -301
15 -39 42 -122 60 -186 84 -301 171 -468 459 -884 161 -231 249 -371 310 -493
l37 -73 -20 -27 c-60 -84 -68 -247 -18 -356 38 -83 89 -148 146 -187 44 -30
50 -39 56 -79 8 -60 -10 -245 -35 -350 -30 -124 -107 -273 -185 -358 -212
-228 -537 -285 -771 -134 -70 45 -114 97 -151 179 -38 83 -39 203 -2 283 37
79 81 125 154 161 166 81 351 27 415 -123 45 -106 8 -239 -84 -293 -49 -29
-117 -33 -171 -11 -84 36 -105 159 -37 224 23 21 24 23 5 13 -74 -38 -71 -191
5 -238 117 -71 267 -6 308 133 31 107 4 206 -77 278 -65 59 -120 80 -216 80
-74 0 -88 -3 -156 -37 -167 -83 -240 -247 -191 -432 40 -157 169 -275 350
-322 l69 -19 3 -1518 2 -1518 -25 -30 c-40 -47 -28 -105 25 -133 84 -44 168
54 110 128 -20 25 -20 38 -18 1549 l3 1523 63 7 c151 17 275 80 398 203 79 79
98 105 143 195 71 144 101 267 108 443 5 121 8 137 22 131 9 -3 57 -9 107 -11
96 -6 168 8 248 49 67 34 153 124 190 199 l34 69 7 -33 c17 -80 74 -137 138
-137 28 0 73 32 81 58 4 11 24 23 50 30 29 7 54 24 76 49 l33 37 -60 13 c-42
10 -72 24 -97 46 -19 18 -85 111 -146 207 -135 212 -201 300 -284 377 -96 90
-314 236 -519 347 -48 27 -87 50 -85 52 2 2 26 -4 53 -12 312 -95 646 -79 890
44 142 71 297 201 396 331 166 221 262 543 261 881 0 329 -64 549 -222 758
-62 82 -196 215 -209 207 -13 -7 6 -109 27 -156 11 -24 35 -69 52 -99 l33 -55
-89 86 c-49 47 -158 139 -242 204 -176 136 -256 218 -300 307 -107 217 -20
436 191 480 107 23 227 -27 227 -94 0 -16 -5 -39 -11 -50 -7 -13 -8 -23 -1
-30 7 -7 4 -20 -9 -41 -10 -17 -21 -51 -25 -74 -4 -28 -14 -49 -27 -58 -21
-15 -21 -15 6 -15 16 0 41 7 56 15 35 18 81 71 81 93 0 9 5 24 11 32 16 22 1
-86 -16 -119 -19 -38 -58 -71 -102 -86 -21 -8 -30 -14 -21 -15 80 -2 157 92
158 193 l0 47 1505 0 c1492 0 1506 0 1527 -20 41 -38 106 -22 133 31 45 87
-75 171 -141 98 -17 -19 -45 -19 -1532 -19 l-1514 0 -39 44 c-21 24 -60 53
-85 65 -58 28 -164 36 -219 18z m-455 -702 c46 -23 69 -44 87 -79 l16 -30 -32
27 c-45 37 -107 37 -151 0 -58 -48 -61 -108 -9 -164 16 -17 29 -32 29 -34 0
-2 -22 -17 -50 -35 -84 -54 -194 -179 -244 -280 -60 -120 -80 -213 -74 -349 8
-180 74 -320 207 -442 113 -104 295 -178 436 -179 l51 0 -4 -41 c-9 -92 62
-188 155 -207 104 -23 196 29 223 126 15 55 12 83 -12 132 -25 49 -89 90 -140
90 -20 0 -26 4 -22 15 8 21 69 19 119 -4 123 -56 181 -204 140 -357 -56 -209
-272 -362 -545 -388 l-65 -6 70 18 c89 23 124 42 164 87 37 43 41 85 9 115
-31 29 -60 25 -200 -24 -68 -24 -159 -49 -203 -56 -182 -28 -424 23 -640 133
-143 73 -300 248 -382 424 -39 84 -83 246 -83 302 1 32 4 26 33 -49 18 -47 40
-98 50 -115 16 -30 16 -29 17 61 0 93 24 198 54 239 12 16 12 24 -2 60 -12 30
-16 76 -16 185 0 140 1 148 33 232 85 225 290 444 515 549 140 66 380 88 466
44z m86 -145 c8 0 14 -8 14 -18 0 -30 -27 -58 -75 -76 -39 -15 -51 -16 -76 -6
-47 20 -71 79 -49 121 10 18 13 18 40 4 39 -20 61 -19 67 5 5 19 6 19 35 -5
16 -14 36 -25 44 -25z m408 -96 c190 -39 378 -167 496 -339 52 -75 119 -227
147 -332 25 -90 27 -114 27 -288 0 -173 -3 -198 -26 -287 -56 -205 -153 -375
-297 -519 -185 -185 -403 -282 -666 -296 -356 -18 -796 148 -1015 383 -24 26
-14 20 35 -21 242 -202 507 -309 801 -322 468 -22 780 207 801 588 9 165 -16
262 -127 500 -82 173 -110 254 -117 331 -10 99 40 192 122 229 99 45 227 3
275 -91 25 -49 25 -93 1 -147 -21 -45 -49 -68 -102 -83 -28 -8 -37 -7 -52 9
-19 18 -19 20 -1 49 15 26 16 33 4 47 -7 9 -22 14 -32 12 -22 -6 -22 -4 -2 34
16 33 16 34 -33 88 l-22 25 -20 -45 c-24 -53 -27 -129 -6 -169 20 -39 68 -63
130 -64 88 -1 157 59 170 148 23 154 -141 273 -309 224 -63 -19 -131 -92 -152
-164 -31 -106 -8 -208 98 -439 68 -147 104 -246 113 -308 l7 -46 -48 48 c-46
45 -95 70 -166 85 -26 6 -27 8 -22 50 9 65 -25 132 -80 157 -23 10 -50 18 -61
18 -11 0 1 -7 27 -15 76 -23 118 -99 98 -175 -9 -32 -15 -37 -48 -43 -30 -5
-40 -2 -54 14 -9 12 -28 20 -45 20 -36 0 -72 36 -83 82 -8 32 -8 32 -9 -12 -1
-54 25 -102 69 -125 l31 -16 -35 -40 c-20 -21 -36 -44 -36 -49 0 -6 -29 -10
-66 -10 -190 0 -400 116 -511 283 -71 106 -94 178 -98 307 -3 92 -3 98 5 43
29 -205 193 -325 372 -271 55 16 123 79 143 133 26 67 17 162 -18 209 -77 101
-231 100 -273 -1 -20 -46 -11 -97 21 -129 19 -19 34 -24 67 -22 l43 1 -42 4
c-31 3 -48 11 -63 30 -22 29 -28 99 -7 106 17 6 58 -11 84 -35 l21 -20 21 21
c28 28 55 26 92 -7 68 -61 41 -177 -56 -237 -41 -26 -58 -30 -114 -30 -237 2
-333 294 -191 582 72 145 194 252 358 312 139 52 261 59 426 25z m-60 -1225
c-22 -24 -114 -73 -114 -61 0 21 88 82 119 82 11 0 9 -5 -5 -21z m99 -32 c18
-8 38 -21 45 -30 11 -13 10 -16 -7 -22 -33 -10 -27 -52 8 -73 63 -35 58 -105
-10 -153 -47 -33 -148 -34 -199 -2 -49 30 -80 88 -80 151 0 56 15 78 58 89 15
3 41 17 57 29 34 27 80 31 128 11z m-1317 -558 c144 -126 253 -206 396 -290
65 -38 171 -100 236 -138 318 -187 481 -345 543 -528 31 -90 31 -231 1 -315
-42 -116 -129 -206 -239 -248 -101 -39 -284 -27 -297 18 -2 9 -7 44 -11 77
-10 85 -57 263 -100 374 l-36 94 27 28 c74 78 233 99 333 44 153 -84 195 -263
87 -371 -71 -72 -156 -78 -247 -19 -98 64 -90 200 15 240 80 31 156 -1 156
-64 0 -34 -7 -40 -70 -61 -40 -13 -45 -19 -48 -49 -3 -29 -1 -33 15 -26 10 4
32 11 49 16 93 27 105 138 21 189 -84 52 -208 -6 -224 -104 -21 -130 152 -246
285 -190 153 64 187 268 67 402 -114 127 -300 144 -451 41 l-40 -27 -38 76
c-59 120 -127 229 -296 477 -87 127 -178 262 -203 301 -47 72 -157 275 -157
288 0 4 26 -26 58 -66 32 -40 107 -116 168 -169z m498 -1111 c41 -118 73 -239
82 -317 7 -52 6 -53 -14 -42 -32 17 -90 90 -116 146 -35 74 -48 150 -37 211
11 55 30 104 42 104 4 0 23 -46 43 -102z"/>
<path d="M4285 7500 c-3 -6 1 -7 9 -4 18 7 21 14 7 14 -6 0 -13 -4 -16 -10z"/>
<path d="M2595 6645 c-32 -31 -32 -81 -2 -155 36 -87 81 -146 205 -268 108
-106 112 -111 71 -94 -76 32 -239 71 -356 84 -288 31 -580 -60 -758 -237 -126
-126 -176 -238 -183 -409 -5 -131 13 -209 67 -294 43 -65 86 -102 169 -140 50
-24 69 -27 162 -27 121 0 177 19 243 83 163 157 98 436 -113 481 -91 19 -176
-10 -233 -82 -26 -31 -32 -49 -35 -101 -2 -35 1 -80 8 -100 28 -85 135 -117
161 -49 13 34 -11 75 -65 112 -24 17 -46 38 -50 46 -18 47 5 110 50 140 34 22
127 31 179 16 169 -46 222 -293 92 -429 -77 -81 -224 -115 -339 -78 -167 54
-260 194 -259 392 0 158 51 275 176 400 67 67 97 88 185 132 58 28 143 61 190
72 392 95 879 -66 1123 -370 150 -188 228 -413 243 -703 14 -274 -51 -512
-178 -653 -43 -48 -47 -54 -20 -35 81 57 173 216 213 366 15 60 22 123 26 251
7 206 -8 318 -67 497 -85 261 -146 353 -420 632 -234 238 -271 284 -335 412
-43 88 -81 133 -112 133 -8 0 -25 -11 -38 -25z"/>
<path d="M3008 4649 c6 -7 12 -28 12 -47 0 -24 9 -45 31 -69 24 -27 29 -41 24
-61 -6 -23 -4 -24 10 -12 23 19 45 65 45 94 0 29 -42 82 -73 91 -61 18 -63 18
-49 4z"/>
</g>
</svg>
